name D:\school\WTK\thesis\model\3dpredictsim\Results\batch_windlass\Pog_s1_tmt_bCst_d00_k800_WL30_ig24_pas.mot
datacolumns 128
datarows 4
range 0.00000000 0.03365149
endheader
time	pelvis_tilt	pelvis_list	pelvis_rotation	pelvis_tx	pelvis_ty	pelvis_tz	hip_flexion_l	hip_adduction_l	hip_rotation_l	hip_flexion_r	hip_adduction_r	hip_rotation_r	knee_angle_l	knee_angle_r	ankle_angle_l	ankle_angle_r	subtalar_angle_l	subtalar_angle_r	tmt_angle_l	tmt_angle_r	mtp_angle_l	mtp_angle_r	lumbar_extension	lumbar_bending	lumbar_rotation	arm_flex_l	arm_add_l	arm_rot_l	arm_flex_r	arm_add_r	arm_rot_r	elbow_flex_l	elbow_flex_r	pro_sup_l	pro_sup_r	glut_med1_l/activation	glut_med2_l/activation	glut_med3_l/activation	glut_min1_l/activation	glut_min2_l/activation	glut_min3_l/activation	semimem_l/activation	semiten_l/activation	bifemlh_l/activation	bifemsh_l/activation	sar_l/activation	add_long_l/activation	add_brev_l/activation	add_mag1_l/activation	add_mag2_l/activation	add_mag3_l/activation	tfl_l/activation	pect_l/activation	grac_l/activation	glut_max1_l/activation	glut_max2_l/activation	glut_max3_l/activation	iliacus_l/activation	psoas_l/activation	quad_fem_l/activation	gem_l/activation	peri_l/activation	rect_fem_l/activation	vas_med_l/activation	vas_int_l/activation	vas_lat_l/activation	med_gas_l/activation	lat_gas_l/activation	soleus_l/activation	tib_post_l/activation	flex_dig_l/activation	flex_hal_l/activation	tib_ant_l/activation	per_brev_l/activation	per_long_l/activation	per_tert_l/activation	ext_dig_l/activation	ext_hal_l/activation	ercspn_l/activation	intobl_l/activation	extobl_l/activation	glut_med1_r/activation	glut_med2_r/activation	glut_med3_r/activation	glut_min1_r/activation	glut_min2_r/activation	glut_min3_r/activation	semimem_r/activation	semiten_r/activation	bifemlh_r/activation	bifemsh_r/activation	sar_r/activation	add_long_r/activation	add_brev_r/activation	add_mag1_r/activation	add_mag2_r/activation	add_mag3_r/activation	tfl_r/activation	pect_r/activation	grac_r/activation	glut_max1_r/activation	glut_max2_r/activation	glut_max3_r/activation	iliacus_r/activation	psoas_r/activation	quad_fem_r/activation	gem_r/activation	peri_r/activation	rect_fem_r/activation	vas_med_r/activation	vas_int_r/activation	vas_lat_r/activation	med_gas_r/activation	lat_gas_r/activation	soleus_r/activation	tib_post_r/activation	flex_dig_r/activation	flex_hal_r/activation	tib_ant_r/activation	per_brev_r/activation	per_long_r/activation	per_tert_r/activation	ext_dig_r/activation	ext_hal_r/activation	ercspn_r/activation	intobl_r/activation	extobl_r/activation	
          0.00000000	         -2.93000873	         -1.93185882	          5.93062368	          0.00000000	          0.85823983	         -0.00322048	        -18.07334211	         -1.48201733	          7.62980665	         32.23567079	          2.26157227	         -3.26551308	         -7.61270176	        -16.15709765	          2.12733804	          6.54206727	         11.59066317	         -0.77862211	         -7.72593469	         -0.24538473	         27.15520921	          0.75271935	         -1.76797343	          0.23767795	         -2.02507979	          5.79876922	        -13.45374892	         15.23736337	        -10.02732737	        -13.57938624	          5.49265122	         40.17824171	         17.69756839	         86.51662706	         86.51662706	          0.33504011	          0.09924404	          0.05551685	          0.35741579	          0.21446722	          0.09924534	          0.05000087	          0.05000014	          0.05000012	          0.08187293	          0.09661967	          0.05966636	          0.05000018	          0.05000028	          0.05000071	          0.05000055	          0.30727083	          0.05000186	          0.05000054	          0.05000236	          0.05000137	          0.05000082	          0.37245361	          0.56874078	          0.05000020	          0.05000099	          0.05000027	          0.26909747	          0.05000273	          0.05055824	          0.05754821	          0.31581759	          0.41056588	          0.26412759	          0.24721471	          0.24094553	          0.32365754	          0.05000000	          0.14974450	          0.21059802	          0.05000005	          0.05000001	          0.05000006	          0.05000001	          0.05000003	          0.05000001	          0.05000046	          0.05001389	          0.05000065	          0.05934749	          0.05163353	          0.05000139	          0.05953126	          0.05934823	          0.20133652	          0.05000051	          0.05000034	          0.11918361	          0.16854161	          0.14876316	          0.13822152	          0.09827313	          0.05000031	          0.05000665	          0.06828126	          0.05168887	          0.09594970	          0.10240819	          0.06813289	          0.06818910	          0.21275896	          0.05383651	          0.06329081	          0.05000038	          0.06900485	          0.07952633	          0.05827489	          0.07044278	          0.07044272	          0.06278054	          0.05857973	          0.05934352	          0.05000353	          0.48764475	          0.31839545	          0.20730916	          0.16471460	          0.56584392	          0.20156229	          0.06203152	          0.11131477	          0.11779772	
          0.01121716	         -2.92562788	         -2.02044751	          6.16597603	          0.01717621	          0.85756371	         -0.00299216	        -17.90388500	         -1.78764580	          7.43740913	         31.60413016	          2.68561803	         -3.11847767	         -9.55834223	        -15.44368258	          1.07643237	          6.17138065	         12.58801273	         -1.23854494	         -8.41976286	         -0.33084383	         28.44592667	          0.99286281	         -1.55447441	          0.48931369	         -2.12129871	          5.55282897	        -13.46735713	         15.55628304	        -11.18157375	        -13.56504851	          5.29460405	         41.34770562	         17.62157360	         86.51662706	         86.51662706	          0.28226922	          0.08361247	          0.05000001	          0.30112058	          0.18068728	          0.08361358	          0.05000078	          0.05000011	          0.05000008	          0.06897742	          0.08140154	          0.14018457	          0.06907867	          0.05000093	          0.05000073	          0.05000029	          0.25887377	          0.09008192	          0.05000041	          0.05000065	          0.05000041	          0.05000026	          0.31378981	          0.52945573	          0.05000005	          0.05000014	          0.05000004	          0.22671291	          0.13981995	          0.07257762	          0.05197777	          0.26607428	          0.34589910	          0.22252579	          0.20827684	          0.20299518	          0.27267946	          0.05000000	          0.12615908	          0.17824788	          0.05000006	          0.05000001	          0.05000004	          0.05000000	          0.05000002	          0.05000005	          0.05000048	          0.05000022	          0.05000507	          0.05000025	          0.05000025	          0.05000063	          0.05934759	          0.05000065	          0.19026208	          0.05000006	          0.05000050	          0.10041205	          0.17526461	          0.16988859	          0.17637307	          0.12485819	          0.05000050	          0.05436676	          0.05752690	          0.05000092	          0.11468965	          0.11975103	          0.05740157	          0.05744891	          0.22917722	          0.05257674	          0.05332257	          0.05710197	          0.16261946	          0.16335397	          0.13816133	          0.05934761	          0.05934758	          0.05934762	          0.05000002	          0.05000028	          0.05000095	          0.56252041	          0.35453691	          0.19668010	          0.29456350	          0.62389864	          0.33800775	          0.05226119	          0.09378198	          0.09924382	
          0.02243433	         -2.91530142	         -2.10435877	          6.37447628	          0.03468155	          0.85671875	         -0.00275329	        -17.64891435	         -2.07629943	          7.22572501	         30.85290240	          3.09848140	         -2.91460728	        -11.67747706	        -15.21720464	         -0.10593458	          5.69980787	         13.53717430	         -1.70370288	         -8.98731898	         -0.40295151	         29.36982059	          1.25260633	         -1.31756409	          0.74168382	         -2.20912882	          5.22188248	        -13.49089734	         15.80813183	        -12.33674010	        -13.55041083	          5.14893731	         42.48469985	         17.53242525	         86.51662706	         86.51662706	          0.23781003	          0.07044299	          0.05000041	          0.25369220	          0.15222790	          0.07044393	          0.05000107	          0.05000008	          0.05000010	          0.05811305	          0.06858034	          0.19363940	          0.19317753	          0.16538257	          0.07046806	          0.12905894	          0.21809955	          0.07589406	          0.05000028	          0.05000222	          0.05000193	          0.05000438	          0.26436590	          0.46118919	          0.05000027	          0.05934548	          0.05934767	          0.19100417	          0.11779812	          0.11780219	          0.11779782	          0.22416586	          0.29141776	          0.18747654	          0.17547191	          0.17102219	          0.22973073	          0.06028772	          0.10628825	          0.15017272	          0.05000008	          0.10682208	          0.05000026	          0.06173757	          0.07044283	          0.05000013	          0.05000005	          0.05000023	          0.10156926	          0.05000007	          0.05000014	          0.05000015	          0.05000002	          0.05000011	          0.16029462	          0.05000012	          0.05000043	          0.08459660	          0.14765942	          0.33957830	          0.24163567	          0.11555759	          0.05000014	          0.05000082	          0.05000045	          0.05934766	          0.12810246	          0.13701393	          0.05000003	          0.05000011	          0.51007300	          0.10128541	          0.07777110	          0.07044283	          0.24873686	          0.25224566	          0.21425758	          0.05000000	          0.05000000	          0.05000000	          0.05004650	          0.07044216	          0.05000275	          0.64384076	          0.33766782	          0.22328262	          0.46044591	          0.63789906	          0.28476959	          0.05000000	          0.07901072	          0.08361228	
          0.03365149	         -2.90004540	         -2.19331917	          6.55424757	          0.05237975	          0.85568516	         -0.00253646	        -17.30018394	         -2.34884211	          7.00054457	         29.95411572	          3.44711659	         -2.63760465	        -13.97803011	        -15.48893567	         -1.35107370	          5.20074728	         14.40403521	         -2.21061605	         -9.36059315	         -0.67073924	         29.67068140	          1.46981226	         -1.06851681	          1.00494782	         -2.28335051	          4.82861675	        -13.51445058	         15.99479260	        -13.45636716	        -13.54611231	          5.10124646	         43.58121916	         17.38861764	         86.51662706	         86.51662706	          0.28475399	          0.05934778	          0.05000006	          0.21373413	          0.12825105	          0.05934859	          0.05000080	          0.05000021	          0.05000035	          0.05000003	          0.05777860	          0.17163144	          0.34531341	          0.13933401	          0.05937113	          0.10873159	          0.18374763	          0.08361019	          0.05000158	          0.05000232	          0.05000235	          0.05934389	          0.22272658	          0.41878727	          0.05000159	          0.05000049	          0.05000008	          0.16091978	          0.09924417	          0.09924760	          0.09924392	          0.18885829	          0.24551759	          0.15794777	          0.14783397	          0.14408515	          0.19354670	          0.17361467	          0.18772584	          0.18435439	          0.05000171	          0.22717363	          0.13658359	          0.07783022	          0.05934764	          0.05000006	          0.30129531	          0.27891649	          0.33334574	          0.05363419	          0.05000038	          0.22979068	          0.09297998	          0.05000019	          0.15307358	          0.05000003	          0.05000018	          0.07394584	          0.21320149	          0.28609266	          0.24519075	          0.16277745	          0.05000012	          0.07044286	          0.12145750	          0.05000009	          0.11845347	          0.14404772	          0.05001710	          0.05000017	          0.42973323	          0.08533238	          0.21727273	          0.05934764	          0.20955926	          0.21251545	          0.18051069	          0.05934762	          0.05934761	          0.05934762	          0.05000002	          0.05934717	          0.05934755	          0.60555654	          0.40081488	          0.18811423	          0.59822971	          0.68666265	          0.23991658	          0.05221567	          0.08361241	          0.07044281	
